<svg height="64" width="64" xmlns="http://www.w3.org/2000/svg" xmlns:xlink="http://www.w3.org/1999/xlink"><filter id="a" height="200%" width="200%"><feGaussianBlur in="SourceAlpha" stdDeviation="3"/><feOffset dx="0" dy="4" result="offsetblur"/><feComponentTransfer><feFuncA slope="0.05" type="linear"/></feComponentTransfer><feMerge><feMergeNode/><feMergeNode in="SourceGraphic"/></feMerge></filter><g filter="url(#a)"><g fill="#ffa500" transform="translate(20 20)"><path d="m3.3 1.5.7 1.2 1.2.6-1.2.7-.7 1.2-.6-1.2-1.2-.7 1.2-.6z"/><path d="m3.3 1.5.7 1.2 1.2.6-1.2.7-.7 1.2-.6-1.2-1.2-.7 1.2-.6z" transform="translate(20 10)"/><path d="m14.5 13.2c0-3.7 2-6.9 5-8.7-1.5-.9-3.2-1.3-5-1.3-5.5 0-10 4.5-10 10s4.5 10 10 10c1.8 0 3.5-.5 5-1.3-3-1.7-5-5-5-8.7z" stroke="#ffa500" stroke-linejoin="round" stroke-width="2"/></g></g></svg>